<?xml version="1.0" standalone="no"?>
<!DOCTYPE svg PUBLIC "-//W3C//DTD SVG 20010904//EN"
 "http://www.w3.org/TR/2001/REC-SVG-20010904/DTD/svg10.dtd">
<svg version="1.0" xmlns="http://www.w3.org/2000/svg"
 width="100.000000pt" height="100.000000pt" viewBox="0 0 100.000000 100.000000"
 preserveAspectRatio="xMidYMid meet">
<metadata>
Created by potrace 1.16, written by Peter Selinger 2001-2019
</metadata>
<g transform="translate(0.000000,100.000000) scale(0.010204,-0.010204)"
fill="#fffb00" stroke="none">
<path d="M4615 9794 c-793 -52 -1464 -244 -2090 -599 -593 -336 -1148 -830
-1585 -1410 -484 -644 -786 -1382 -894 -2185 -32 -242 -40 -382 -40 -700 0
-569 59 -984 214 -1491 260 -848 826 -1671 1583 -2303 312 -260 602 -449 962
-626 526 -259 1040 -401 1680 -462 170 -16 741 -16 910 0 627 61 1140 200
1660 451 970 468 1846 1345 2317 2317 249 514 389 1033 450 1659 16 170 16
740 0 910 -60 622 -200 1138 -446 1650 -472 980 -1351 1859 -2331 2331 -498
239 -1008 380 -1595 440 -139 14 -669 26 -795 18z m2025 -3189 l1735 -1735
-498 -497 -497 -497 -890 889 -890 890 0 -2128 0 -2127 -700 0 -700 0 0 2127
0 2128 -890 -890 -890 -889 -497 497 -498 497 1735 1735 c954 954 1737 1735
1740 1735 3 0 786 -781 1740 -1735z"/>
</g>
</svg>
