<svg width="132" height="132" viewBox="0 0 78 78" fill="none" xmlns="http://www.w3.org/2000/svg">
<g opacity="0.78">
<path d="M0 0H78V78H0V0Z" fill="#fffb00"/>
<path d="M20.5091 65.1824L26.4779 61.57C27.6296 63.6118 28.6772 65.3393 31.1899 65.3393C33.5985 65.3393 35.1173 64.3972 35.1173 60.7325V35.8096H42.4472V60.8361C42.4472 68.428 37.9969 71.8837 31.504 71.8837C25.6403 71.8837 22.2367 68.8469 20.5088 65.1818L20.5091 65.1824ZM46.4286 64.3969L52.3968 60.9415C53.968 63.5072 56.0101 65.392 59.6224 65.392C62.6599 65.392 64.5965 63.8735 64.5965 61.7791C64.5965 59.266 62.6069 58.3757 59.2559 56.9102L57.4238 56.1241C52.1354 53.8733 48.6275 51.0458 48.6275 45.077C48.6275 39.5792 52.816 35.3904 59.361 35.3904C64.0209 35.3904 67.3719 37.0138 69.7801 41.2547L64.0727 44.9201C62.8159 42.6688 61.4551 41.7788 59.3607 41.7788C57.2139 41.7788 55.8525 43.1401 55.8525 44.9201C55.8525 47.119 57.2139 48.0096 60.3552 49.371L62.1876 50.1561C68.4185 52.8267 71.9263 55.5491 71.9263 61.6746C71.9263 68.2723 66.743 71.8846 59.7794 71.8846C52.9729 71.8846 48.5748 68.6385 46.4283 64.3972" fill="black"/>
</g>
</svg>
