<svg width="150" height="144" viewBox="0 0 100 96" fill="none" xmlns="http://www.w3.org/2000/svg">
<g clip-path="url(#clip0_1_574)">
<path d="M49.9999 0L94.1916 23.95V71.8499L49.9999 95.7999L5.80823 71.8499V23.95L49.9999 0Z" fill="white"/>
<path d="M86.3 70.1973L51.4584 89.0779V74.3726L73.1667 62.9325L86.3 70.1973ZM88.6834 68.1297V28.6442L75.9334 35.6934V61.0724L88.6834 68.1297ZM13.5584 70.1973L48.4 89.0779V74.3726L26.6917 62.9325L13.5584 70.1973ZM11.175 68.1297V28.6442L23.925 35.6934V61.0724L11.175 68.1297ZM12.6667 26.0895L48.4 6.72195V20.9402L25.5084 33.003L25.3334 33.0988L12.6667 26.0895ZM87.1917 26.0895L51.4584 6.72195V20.9402L74.35 33.003L74.525 33.0988L87.1917 26.0895Z" fill="#8ED6FB"/>
<path d="M48.4002 71.0276L26.9836 59.7472V37.3939L48.4002 49.2411V71.0276ZM51.4586 71.0276L72.8752 59.7472V37.3939L51.4586 49.2411V71.0276ZM28.4336 34.8073L49.9336 23.4789L71.4336 34.8073L49.9336 46.7024L28.4336 34.8073Z" fill="#1C78C0"/>
</g>
<defs>
<clipPath id="clip0_1_574">
<rect width="100" height="95.7999" fill="white"/>
</clipPath>
</defs>
</svg>
